<mxfile host="app.diagrams.net" modified="2022-03-08T10:03:59.672Z" agent="5.0 (Macintosh; Intel Mac OS X 10_15_7) AppleWebKit/537.36 (KHTML, like Gecko) Chrome/97.0.4692.99 Safari/537.36" etag="CkcQ0FKISecxlpwaOMe2" version="15.0.3" type="github">
  <diagram id="C5RBs43oDa-KdzZeNtuy" name="Page-1">
    <mxGraphModel dx="2066" dy="1097" grid="1" gridSize="10" guides="1" tooltips="1" connect="1" arrows="1" fold="1" page="1" pageScale="1" pageWidth="1169" pageHeight="1654" background="none" math="0" shadow="0">
      <root>
        <mxCell id="WIyWlLk6GJQsqaUBKTNV-0" />
        <mxCell id="WIyWlLk6GJQsqaUBKTNV-1" parent="WIyWlLk6GJQsqaUBKTNV-0" />
        <mxCell id="WIyWlLk6GJQsqaUBKTNV-2" value="" style="rounded=0;html=1;jettySize=auto;orthogonalLoop=1;fontSize=11;endArrow=block;endFill=0;endSize=8;strokeWidth=1;shadow=0;labelBackgroundColor=none;edgeStyle=orthogonalEdgeStyle;verticalAlign=middle;align=center;" parent="WIyWlLk6GJQsqaUBKTNV-1" source="WIyWlLk6GJQsqaUBKTNV-3" target="WIyWlLk6GJQsqaUBKTNV-6" edge="1">
          <mxGeometry relative="1" as="geometry" />
        </mxCell>
        <mxCell id="WIyWlLk6GJQsqaUBKTNV-4" value="Yes" style="rounded=0;html=1;jettySize=auto;orthogonalLoop=1;fontSize=11;endArrow=block;endFill=0;endSize=8;strokeWidth=1;shadow=0;labelBackgroundColor=none;edgeStyle=orthogonalEdgeStyle;verticalAlign=middle;align=center;" parent="WIyWlLk6GJQsqaUBKTNV-1" source="WIyWlLk6GJQsqaUBKTNV-6" edge="1">
          <mxGeometry y="20" relative="1" as="geometry">
            <mxPoint as="offset" />
            <mxPoint x="434" y="430" as="targetPoint" />
          </mxGeometry>
        </mxCell>
        <mxCell id="1gMbIi9mzOrVOe22iOa0-0" style="edgeStyle=orthogonalEdgeStyle;rounded=0;orthogonalLoop=1;jettySize=auto;html=1;entryX=1;entryY=0.5;entryDx=0;entryDy=0;" edge="1" parent="WIyWlLk6GJQsqaUBKTNV-1" source="WIyWlLk6GJQsqaUBKTNV-6" target="WIyWlLk6GJQsqaUBKTNV-3">
          <mxGeometry relative="1" as="geometry">
            <Array as="points">
              <mxPoint x="514" y="325" />
              <mxPoint x="514" y="210" />
            </Array>
          </mxGeometry>
        </mxCell>
        <mxCell id="1gMbIi9mzOrVOe22iOa0-1" value="否" style="edgeLabel;html=1;align=center;verticalAlign=middle;resizable=0;points=[];" vertex="1" connectable="0" parent="1gMbIi9mzOrVOe22iOa0-0">
          <mxGeometry x="-0.3455" relative="1" as="geometry">
            <mxPoint as="offset" />
          </mxGeometry>
        </mxCell>
        <mxCell id="WIyWlLk6GJQsqaUBKTNV-6" value="确定培训计划" style="rhombus;whiteSpace=wrap;html=1;shadow=0;fontFamily=Helvetica;fontSize=12;align=center;strokeWidth=1;spacing=6;spacingTop=-4;verticalAlign=middle;" parent="WIyWlLk6GJQsqaUBKTNV-1" vertex="1">
          <mxGeometry x="384" y="285" width="100" height="80" as="geometry" />
        </mxCell>
        <mxCell id="b5Mt_fPdI5iNJ6w0Xpzc-0" value="交付中心" style="swimlane;horizontal=0;fillColor=#dae8fc;strokeColor=#6c8ebf;verticalAlign=middle;align=center;" parent="WIyWlLk6GJQsqaUBKTNV-1" vertex="1">
          <mxGeometry x="164" y="170" width="600" height="220" as="geometry" />
        </mxCell>
        <mxCell id="WIyWlLk6GJQsqaUBKTNV-3" value="培训调研" style="rounded=1;whiteSpace=wrap;html=1;fontSize=12;glass=0;strokeWidth=1;shadow=0;verticalAlign=middle;align=center;" parent="b5Mt_fPdI5iNJ6w0Xpzc-0" vertex="1">
          <mxGeometry x="210" y="20" width="120" height="40" as="geometry" />
        </mxCell>
        <mxCell id="b5Mt_fPdI5iNJ6w0Xpzc-10" value="iput:培训需求、培训细节(时间、预期、形式)" style="shape=document;whiteSpace=wrap;html=1;boundedLbl=1;verticalAlign=middle;align=center;" parent="b5Mt_fPdI5iNJ6w0Xpzc-0" vertex="1">
          <mxGeometry x="110" y="60" width="140" height="60" as="geometry" />
        </mxCell>
        <mxCell id="b5Mt_fPdI5iNJ6w0Xpzc-2" value="培训进行" style="swimlane;horizontal=0;fillColor=#fff2cc;strokeColor=#d6b656;verticalAlign=middle;align=center;" parent="WIyWlLk6GJQsqaUBKTNV-1" vertex="1">
          <mxGeometry x="164" y="390" width="606" height="240" as="geometry" />
        </mxCell>
        <mxCell id="b5Mt_fPdI5iNJ6w0Xpzc-9" value="" style="edgeStyle=orthogonalEdgeStyle;rounded=0;orthogonalLoop=1;jettySize=auto;html=1;verticalAlign=middle;align=center;" parent="b5Mt_fPdI5iNJ6w0Xpzc-2" source="b5Mt_fPdI5iNJ6w0Xpzc-3" target="b5Mt_fPdI5iNJ6w0Xpzc-8" edge="1">
          <mxGeometry relative="1" as="geometry" />
        </mxCell>
        <mxCell id="b5Mt_fPdI5iNJ6w0Xpzc-3" value="进行课件设计" style="rounded=1;whiteSpace=wrap;html=1;fontSize=12;glass=0;strokeWidth=1;shadow=0;verticalAlign=middle;align=center;" parent="b5Mt_fPdI5iNJ6w0Xpzc-2" vertex="1">
          <mxGeometry x="210" y="30" width="120" height="40" as="geometry" />
        </mxCell>
        <mxCell id="b5Mt_fPdI5iNJ6w0Xpzc-12" value="" style="edgeStyle=orthogonalEdgeStyle;rounded=0;orthogonalLoop=1;jettySize=auto;html=1;verticalAlign=middle;align=center;" parent="b5Mt_fPdI5iNJ6w0Xpzc-2" source="b5Mt_fPdI5iNJ6w0Xpzc-8" target="b5Mt_fPdI5iNJ6w0Xpzc-11" edge="1">
          <mxGeometry relative="1" as="geometry" />
        </mxCell>
        <mxCell id="b5Mt_fPdI5iNJ6w0Xpzc-8" value="进行考核设计" style="rounded=1;whiteSpace=wrap;html=1;fontSize=12;glass=0;strokeWidth=1;shadow=0;verticalAlign=middle;align=center;" parent="b5Mt_fPdI5iNJ6w0Xpzc-2" vertex="1">
          <mxGeometry x="210" y="100" width="120" height="40" as="geometry" />
        </mxCell>
        <mxCell id="w0ziFHajpQSt5rMZ98JG-4" value="" style="edgeStyle=orthogonalEdgeStyle;rounded=0;orthogonalLoop=1;jettySize=auto;html=1;" parent="b5Mt_fPdI5iNJ6w0Xpzc-2" source="b5Mt_fPdI5iNJ6w0Xpzc-11" edge="1">
          <mxGeometry relative="1" as="geometry">
            <mxPoint x="270" y="260" as="targetPoint" />
          </mxGeometry>
        </mxCell>
        <mxCell id="b5Mt_fPdI5iNJ6w0Xpzc-11" value="进行培训" style="rounded=1;whiteSpace=wrap;html=1;fontSize=12;glass=0;strokeWidth=1;shadow=0;verticalAlign=middle;align=center;" parent="b5Mt_fPdI5iNJ6w0Xpzc-2" vertex="1">
          <mxGeometry x="210" y="165" width="120" height="40" as="geometry" />
        </mxCell>
        <mxCell id="w0ziFHajpQSt5rMZ98JG-0" value="out:课件PPT" style="shape=document;whiteSpace=wrap;html=1;boundedLbl=1;verticalAlign=middle;align=center;" parent="b5Mt_fPdI5iNJ6w0Xpzc-2" vertex="1">
          <mxGeometry x="331" y="31" width="169" height="39" as="geometry" />
        </mxCell>
        <mxCell id="MgCEsrjEWP3Si-s4gdg2-0" value="out:考核模式设计、靶场环境" style="shape=document;whiteSpace=wrap;html=1;boundedLbl=1;verticalAlign=middle;align=center;" parent="b5Mt_fPdI5iNJ6w0Xpzc-2" vertex="1">
          <mxGeometry x="331" y="100" width="150" height="40" as="geometry" />
        </mxCell>
        <mxCell id="1gMbIi9mzOrVOe22iOa0-3" value="结果考核" style="rounded=1;whiteSpace=wrap;html=1;fontSize=12;glass=0;strokeWidth=1;shadow=0;verticalAlign=middle;align=center;" vertex="1" parent="b5Mt_fPdI5iNJ6w0Xpzc-2">
          <mxGeometry x="210" y="260" width="120" height="40" as="geometry" />
        </mxCell>
        <mxCell id="b5Mt_fPdI5iNJ6w0Xpzc-35" value="复盘" style="swimlane;horizontal=0;align=center;verticalAlign=middle;fillColor=#e1d5e7;strokeColor=#9673a6;" parent="WIyWlLk6GJQsqaUBKTNV-1" vertex="1">
          <mxGeometry x="164" y="790" width="602" height="240" as="geometry" />
        </mxCell>
        <mxCell id="w0ziFHajpQSt5rMZ98JG-18" value="不符合预期" style="edgeStyle=orthogonalEdgeStyle;rounded=0;orthogonalLoop=1;jettySize=auto;html=1;" parent="b5Mt_fPdI5iNJ6w0Xpzc-35" source="w0ziFHajpQSt5rMZ98JG-13" target="w0ziFHajpQSt5rMZ98JG-15" edge="1">
          <mxGeometry relative="1" as="geometry" />
        </mxCell>
        <mxCell id="1gMbIi9mzOrVOe22iOa0-7" value="" style="edgeStyle=orthogonalEdgeStyle;rounded=0;orthogonalLoop=1;jettySize=auto;html=1;" edge="1" parent="b5Mt_fPdI5iNJ6w0Xpzc-35" source="w0ziFHajpQSt5rMZ98JG-13" target="1gMbIi9mzOrVOe22iOa0-6">
          <mxGeometry relative="1" as="geometry" />
        </mxCell>
        <mxCell id="1gMbIi9mzOrVOe22iOa0-8" value="符合预期" style="edgeLabel;html=1;align=center;verticalAlign=middle;resizable=0;points=[];" vertex="1" connectable="0" parent="1gMbIi9mzOrVOe22iOa0-7">
          <mxGeometry x="-0.2083" y="3" relative="1" as="geometry">
            <mxPoint as="offset" />
          </mxGeometry>
        </mxCell>
        <mxCell id="w0ziFHajpQSt5rMZ98JG-13" value="培训调研" style="rhombus;whiteSpace=wrap;html=1;shadow=0;fontFamily=Helvetica;fontSize=12;align=center;strokeWidth=1;spacing=6;spacingTop=-4;verticalAlign=middle;" parent="b5Mt_fPdI5iNJ6w0Xpzc-35" vertex="1">
          <mxGeometry x="220" y="16" width="100" height="80" as="geometry" />
        </mxCell>
        <mxCell id="w0ziFHajpQSt5rMZ98JG-15" value="复盘" style="rounded=1;whiteSpace=wrap;html=1;fontSize=12;glass=0;strokeWidth=1;shadow=0;verticalAlign=middle;align=center;" parent="b5Mt_fPdI5iNJ6w0Xpzc-35" vertex="1">
          <mxGeometry x="210" y="153" width="120" height="40" as="geometry" />
        </mxCell>
        <mxCell id="CzGfe24st4bRN5wf_aPC-0" value="iput:培训建议问卷、问题表格" style="shape=document;whiteSpace=wrap;html=1;boundedLbl=1;" parent="b5Mt_fPdI5iNJ6w0Xpzc-35" vertex="1">
          <mxGeometry x="56" y="153" width="154" height="43" as="geometry" />
        </mxCell>
        <mxCell id="1gMbIi9mzOrVOe22iOa0-6" value="归档" style="rounded=1;whiteSpace=wrap;html=1;fontSize=12;glass=0;strokeWidth=1;shadow=0;verticalAlign=middle;align=center;" vertex="1" parent="b5Mt_fPdI5iNJ6w0Xpzc-35">
          <mxGeometry x="416" y="36" width="120" height="40" as="geometry" />
        </mxCell>
        <mxCell id="1gMbIi9mzOrVOe22iOa0-10" value="out:复盘结果(问题、改进计划、教训、经验)" style="shape=document;whiteSpace=wrap;html=1;boundedLbl=1;" vertex="1" parent="b5Mt_fPdI5iNJ6w0Xpzc-35">
          <mxGeometry x="330" y="153" width="154" height="43" as="geometry" />
        </mxCell>
        <mxCell id="b5Mt_fPdI5iNJ6w0Xpzc-31" value="考核" style="swimlane;horizontal=0;align=center;verticalAlign=middle;fillColor=#d5e8d4;strokeColor=#82b366;" parent="WIyWlLk6GJQsqaUBKTNV-1" vertex="1">
          <mxGeometry x="164" y="630" width="606" height="176" as="geometry" />
        </mxCell>
        <mxCell id="b5Mt_fPdI5iNJ6w0Xpzc-19" value="考核结果同步" style="rounded=1;whiteSpace=wrap;html=1;fontSize=12;glass=0;strokeWidth=1;shadow=0;verticalAlign=middle;align=center;" parent="b5Mt_fPdI5iNJ6w0Xpzc-31" vertex="1">
          <mxGeometry x="210" y="90" width="120" height="40" as="geometry" />
        </mxCell>
        <mxCell id="w0ziFHajpQSt5rMZ98JG-14" value="" style="edgeStyle=orthogonalEdgeStyle;rounded=0;orthogonalLoop=1;jettySize=auto;html=1;" parent="WIyWlLk6GJQsqaUBKTNV-1" source="b5Mt_fPdI5iNJ6w0Xpzc-19" target="w0ziFHajpQSt5rMZ98JG-13" edge="1">
          <mxGeometry relative="1" as="geometry" />
        </mxCell>
        <mxCell id="1gMbIi9mzOrVOe22iOa0-5" value="" style="edgeStyle=orthogonalEdgeStyle;rounded=0;orthogonalLoop=1;jettySize=auto;html=1;" edge="1" parent="WIyWlLk6GJQsqaUBKTNV-1" source="1gMbIi9mzOrVOe22iOa0-3" target="b5Mt_fPdI5iNJ6w0Xpzc-19">
          <mxGeometry relative="1" as="geometry" />
        </mxCell>
      </root>
    </mxGraphModel>
  </diagram>
</mxfile>
